<svg width="101" height="33" viewBox="0 0 101 33" fill="none" xmlns="http://www.w3.org/2000/svg">
<path fill-rule="evenodd" clip-rule="evenodd" d="M95.7413 20.1023C96.748 20.5256 98.4709 20.3148 99.7297 19.7209L100.995 22.6067C99.2735 23.6738 97.4674 24.1825 95.9135 24.0553V24.1825C95.9135 29.436 92.9253 32.9108 88.8936 32.9108C84.8889 32.9108 82.0333 30.6656 81.4158 26.1186C80.7907 26.3193 80.1393 26.4233 79.4837 26.4277C78.8533 30.2422 76.2911 32.9108 72.5531 32.9108C68.7607 32.9108 65.9127 30.6575 64.7591 25.6679L58.6965 32.8191L55.0015 31.7166L55.252 23.199L48.5734 32.8562L44.9199 31.7551L45.1289 22.8562L38.3244 32.8562L34.4952 31.7118L35.4988 15.1032L39.9516 15.9079L39.5736 24.4255L46.7148 14.5093L50.1163 16.0769L49.7381 24.3402L57.0053 14.3403L60.4085 16.0769L59.8197 25.2303L64.1961 20.6302V20.0605C64.1961 9.59384 68.9424 0.015625 75.4105 0.015625C78.52 0.015625 80.4934 1.88103 80.4934 5.22881C80.4934 9.4232 77.7638 14.9326 69.1946 21.4157C69.5295 26.2039 71.0436 28.3655 72.6391 28.3655C73.815 28.3655 74.8649 27.1794 75.1168 24.6363C73.9826 23.6191 73.3587 22.4425 73.2326 20.4934L76.5449 17.305C77.3426 21.1614 78.6028 22.56 80.4089 22.56C80.7613 22.5624 81.1102 22.4907 81.4332 22.3492C81.9502 18.9741 83.8503 15.8242 86.4173 14.1713L89.1042 17.0523C87.1305 18.7889 86.1637 21.4157 86.1637 23.9587C86.1637 26.5019 87.089 28.3655 88.9781 28.3655C90.6598 28.3655 91.6665 26.2892 91.6665 22.9415C91.671 22.701 91.6571 22.4604 91.6249 22.222C90.3231 21.0777 89.4822 19.6372 89.5254 18.1532C89.5693 17.5736 89.8234 17.0305 90.2386 16.6274L92.255 14.5929C94.2717 16.1188 95.237 17.3903 95.7413 20.1023ZM75.9561 6.07541C75.9561 4.93267 75.5764 4.38061 74.7787 4.38061C72.7637 4.38061 69.9061 10.6529 69.276 17.0088C74.6956 12.1787 75.9561 8.36414 75.9561 6.07541ZM27.8249 16.8655C27.9128 16.6821 29.2353 17.0458 29.3948 17.0909C31.7369 17.7411 33.1313 19.6983 33.6803 22.0176C34.8402 26.9056 32.0466 32.7772 26.5215 32.6758C23.9974 32.629 21.732 31.3979 20.1684 29.5839C18.994 30.8217 17.5321 31.7445 15.915 32.2687C13.3208 33.1023 10.4777 33.2165 7.89629 32.2976C5.22392 31.3543 3.04616 29.3394 1.69323 26.8478C0.409958 24.4525 -0.163799 21.7356 0.0403313 19.0207C0.359419 14.7345 2.94722 10.8106 6.76831 8.77937C8.83442 7.68008 11.3664 7.4644 13.4819 7.54488C15.9517 7.63824 17.8966 8.34319 19.4298 9.69679L19.5223 9.78047L19.4665 9.89151C18.89 11.0278 18.3113 12.1626 17.7306 13.2957L17.6556 13.4437L17.512 13.3633C16.3567 12.7039 15.1054 12.2329 13.8042 11.9678C10.0932 11.192 6.26257 13.9008 5.43774 17.8828C5.13316 19.3612 5.16153 20.8897 5.52069 22.3556C5.57176 22.5584 5.62756 22.7612 5.69139 22.9592C6.63269 25.9158 9.13756 28.1225 12.2949 28.1225C14.3674 28.1225 16.7829 27.1407 18.1151 25.4345C18.1092 25.402 18.103 25.3697 18.0968 25.3377C18.0865 25.284 18.0763 25.2305 18.0673 25.177C17.394 21.208 19.4984 15.9835 22.3399 14.0859L25.3266 16.5356C23.8045 18.3785 22.3925 21.509 22.8281 24.1003C23.2349 26.5226 24.4938 28.0276 26.5981 28.0276C27.1993 28.0158 27.7819 27.8139 28.2633 27.4502C28.7449 27.0867 29.1009 26.5799 29.2816 26.0011C29.5944 24.8261 29.6677 23.4613 29.1587 22.3347C28.9225 21.7917 28.5235 21.3369 28.0181 21.0342C27.5284 20.7509 26.6604 20.458 26.0924 20.5707C26.089 20.5713 26.0852 20.5718 26.0809 20.5724C26.0642 20.5745 26.0418 20.5774 26.0344 20.5911L27.8249 16.8655ZM26.0334 20.5932C26.0336 20.5925 26.0339 20.5918 26.0344 20.5911L26.0334 20.5932Z" fill="#2F2F2F"/>
</svg>
